ply
format ascii 1.0
comment VCGLIB generated
element vertex 192
property float x
property float y
property float z
property float nx
property float ny
property float nz
element face 192
property list uchar int vertex_indices
end_header
307.3864 206.779 19.12707 -1.68915 58.42672 1.518056e-07 
308.0196 206.7973 14.12586 -0.7608161 26.31591 -5.354173e-06 
307.3348 206.7775 11.06906 -1.194489 41.31898 -1.83098e-06 
310.1541 206.859 21.89595 -1.211704 41.91119 1.069158e-06 
309.4719 206.8393 16.90119 -0.415741 14.38085 -1.778826e-05 
311.5927 206.9006 19.20592 -0.8666952 29.97606 -2.380461e-06 
313.5439 206.957 23.85384 -0.9509377 32.89058 -1.401454e-05 
314.2375 206.9771 20.883 -0.8666725 29.97605 -2.638996e-05 
317.3247 207.0663 24.86732 -1.211735 41.91117 -2.129748e-05 
317.226 207.0635 21.81811 -0.5362604 18.5477 -1.018122e-05 
320.3547 207.1539 21.94754 -0.8812666 30.48264 -5.923212e-07 
321.2388 207.1795 24.86732 -0.9362059 32.38392 9.812415e-06 
323.4102 207.2423 21.26248 -0.881268 30.48268 3.65749e-05 
325.0196 207.2888 23.85384 -0.9362477 32.38416 8.381903e-05 
326.1844 207.3225 19.80959 -0.881283 30.48289 0.0001036972 
328.4094 207.3868 21.89595 -0.9361994 32.38419 0.0001022741 
328.4882 207.3891 17.6879 -0.8812032 30.4828 6.083399e-05 
331.1771 207.4668 19.12707 -1.211684 41.91118 5.424907e-05 
330.1646 207.4376 15.042 -0.4732985 16.37279 1.190975e-05 
331.0993 207.4646 12.0522 -0.8038313 27.8012 1.383852e-05 
333.1342 207.5234 15.7359 -2.025647 70.05772 6.388873e-07 
331.2286 207.4683 8.922243 -0.7866372 27.20926 -1.529744e-05 
331.1771 207.4668 0.8642268 -1.844268 63.78758 -4.56525e-05 
333.1342 207.5234 4.255398 -1.100565 38.06578 0 
334.1472 207.5527 11.95354 -0.4508281 15.59738 0 
334.1472 207.5527 8.037752 -0.1146606 3.966933 0 
305.4294 206.7224 15.7359 -1.100625 38.06543 0 
304.4163 206.6931 8.037752 -0.451063 15.59738 0 
304.4163 206.6931 11.95354 -0.1147203 3.966931 0 
305.4294 206.7224 4.255397 -1.991899 68.89812 0 
307.3864 206.779 0.8642268 -1.211587 41.9113 3.477233e-05 
307.4642 206.7813 7.939099 -0.2313621 8.004734 7.011462e-06 
308.399 206.8083 4.949297 -0.8037817 27.80133 1.565507e-05 
310.1541 206.859 -1.904651 -1.211772 41.91116 -8.047093e-06 
310.0753 206.8568 2.303395 -0.47343 16.37277 -2.247142e-05 
312.3791 206.9234 0.181706 -0.8813049 30.48267 -1.080008e-05 
313.5439 206.957 -3.862544 -0.9362772 32.38402 3.107265e-05 
315.1533 207.0036 -1.271178 -0.8813127 30.48269 5.007535e-05 
317.3247 207.0663 -4.876024 -0.9362902 32.38402 4.708394e-05 
318.2088 207.0919 -1.956247 -0.8813108 30.48273 9.361655e-06 
321.2388 207.1795 -4.876024 -0.9362268 32.38406 -1.563691e-05 
321.3374 207.1824 -1.826813 -0.8812433 30.48273 -2.25883e-05 
325.0196 207.2888 -3.862545 -1.211677 41.91106 -7.150881e-05 
324.326 207.2688 -0.8916986 -0.536243 18.54767 -1.963228e-05 
326.9708 207.3452 0.7853703 -0.866634 29.97592 -7.090159e-05 
328.4093 207.3868 -1.904651 -0.950844 32.89046 -6.915815e-05 
329.0916 207.4065 3.090105 -0.8665806 29.97597 -4.831143e-05 
330.5439 207.4485 5.865444 -0.41569 14.38084 -2.343394e-05 
318.7458 27.03223 -3.862544 -886.8972 -25.64157 -1901.643 
310.1541 206.859 -1.904651 -1202.737 -34.77298 -1719.216 
313.5439 206.957 -3.862544 -716.9739 -20.72882 -1972.062 
315.356 26.93422 -1.904651 -1348.653 -38.99165 -1607.208 
307.3864 206.779 0.8642268 -2216.691 -64.08796 -1701.636 
312.5883 26.8542 0.8642268 -1108.345 -32.04398 -850.8179 
310.6313 26.79762 4.255397 -1900.851 -54.95654 -887.2639 
305.4294 206.7224 4.255397 -1971.235 -56.99145 -717.2729 
309.6182 26.76833 8.037752 -2065.626 -59.72044 -364.8546 
304.4163 206.6931 8.037752 -2089.633 -60.41453 -182.4273 
309.6182 26.76833 11.95354 -2089.634 -60.41455 182.4273 
304.4163 206.6931 11.95354 -2065.627 -59.72049 364.8546 
310.6313 26.79762 15.7359 -1971.237 -56.99151 717.2729 
305.4294 206.7224 15.7359 -1900.853 -54.9566 887.2639 
312.5883 26.8542 19.12707 -1718.502 -49.68456 1203.236 
307.3864 206.779 19.12707 -1606.536 -46.44743 1349.218 
315.356 26.93422 21.89595 -1700.927 -49.17643 2217.615 
310.1541 206.859 21.89595 -850.4636 -24.58822 1108.808 
313.5439 206.957 23.85384 -886.8972 -25.64157 1901.643 
318.7458 27.03223 23.85384 -716.9727 -20.72879 1972.062 
317.3247 207.0663 24.86732 -364.6994 -10.54402 2066.49 
322.5266 27.14154 24.86732 -182.3507 -5.272042 2090.506 
321.2388 207.1795 24.86732 182.349 5.272023 2090.505 
326.4407 27.2547 24.86732 364.7001 10.54408 2066.49 
325.0196 207.2888 23.85384 716.9741 20.72886 1972.062 
330.2215 27.364 23.85384 886.8969 25.64156 1901.649 
328.4094 207.3868 21.89595 1202.738 34.773 1719.221 
333.6113 27.46201 21.89595 1348.655 38.99179 1607.207 
331.1771 207.4668 19.12707 2216.693 64.0882 1701.636 
336.379 27.54202 19.12707 1108.346 32.0442 850.818 
338.3361 27.59862 15.7359 1900.851 54.95664 887.2694 
333.1342 207.5234 15.7359 1971.236 56.99147 717.2783 
339.3491 27.6279 11.95354 2065.627 59.72048 364.8545 
334.1472 207.5527 11.95354 2089.635 60.41456 182.4272 
339.3491 27.6279 8.037752 2089.634 60.41454 -182.4272 
334.1472 207.5527 8.037752 2065.626 59.72044 -364.8544 
338.3361 27.59862 4.255398 1971.235 56.99144 -717.2728 
333.1342 207.5234 4.255398 1900.851 54.95664 -887.2694 
336.379 27.54202 0.8642268 1718.501 49.68472 -1203.242 
331.1771 207.4668 0.8642268 1606.536 46.4477 -1349.223 
333.6113 27.46201 -1.904651 1700.927 49.17665 -2217.621 
328.4093 207.3868 -1.904651 850.4634 24.58836 -1108.808 
325.0196 207.2888 -3.862545 886.8973 25.64163 -1901.643 
330.2215 27.364 -3.862545 716.9739 20.72882 -1972.057 
321.2388 207.1795 -4.876024 364.7003 10.54405 -2066.485 
326.4407 27.2547 -4.876024 182.3501 5.272025 -2090.506 
317.3247 207.0663 -4.876024 -182.3502 -5.272027 -2090.511 
322.5266 27.14154 -4.876024 -364.7004 -10.54405 -2066.496 
309.6182 26.76833 8.037752 0.451063 -15.59738 0 
310.6313 26.79762 15.7359 1.100625 -38.06543 0 
309.6182 26.76833 11.95354 0.1147203 -3.966931 0 
310.6313 26.79762 4.255397 1.991899 -68.89812 0 
312.5883 26.8542 19.12707 1.68915 -58.42672 -1.47149e-07 
312.5367 26.85271 11.06906 1.194489 -41.31898 1.83098e-06 
312.5883 26.8542 0.8642268 1.211587 -41.9113 -3.477326e-05 
312.6661 26.85645 7.939099 0.2313621 -8.004734 -7.011462e-06 
313.6009 26.88347 4.949297 0.8037817 -27.80133 -1.565134e-05 
315.356 26.93422 -1.904651 1.211772 -41.91116 8.058269e-06 
315.2772 26.93195 2.303395 0.4734301 -16.37277 2.247142e-05 
317.581 26.99855 0.181706 0.881305 -30.48267 1.081126e-05 
318.7458 27.03223 -3.862544 0.9362772 -32.38402 -3.106147e-05 
320.3552 27.07875 -1.271178 0.8813127 -30.4828 -5.199015e-05 
322.5266 27.14154 -4.876024 0.9362903 -32.38413 -5.245954e-05 
323.4107 27.1671 -1.956247 0.8813109 -30.48274 -1.483411e-05 
326.4407 27.2547 -4.876024 0.9362268 -32.38396 1.208298e-05 
326.5393 27.25755 -1.826813 0.8812435 -30.48264 2.249144e-05 
330.2215 27.364 -3.862545 1.211677 -41.9112 7.322989e-05 
329.5279 27.34395 -0.8916986 0.536243 -18.54767 1.963228e-05 
332.1727 27.42043 0.7853703 0.866634 -29.97614 7.44909e-05 
333.6113 27.46201 -1.904651 0.950844 -32.89075 7.518753e-05 
334.2935 27.48174 3.090105 0.8665807 -29.97628 5.206093e-05 
336.379 27.54202 0.8642268 1.844268 -63.78722 4.748814e-05 
335.7458 27.52373 5.865444 0.4156901 -14.38099 2.287515e-05 
336.4306 27.54352 8.922243 0.7866372 -27.20912 1.704879e-05 
313.2215 26.87251 14.12586 0.7608161 -26.31615 7.235445e-06 
315.356 26.93422 21.89595 1.211704 -41.91134 2.078712e-06 
314.6738 26.91449 16.90119 0.415741 -14.381 2.094358e-05 
316.7946 26.97581 19.20592 0.8666952 -29.97612 5.371869e-06 
318.7458 27.03223 23.85384 0.9509377 -32.89075 1.906976e-05 
319.4394 27.05228 20.883 0.8666724 -29.97625 3.408361e-05 
322.5266 27.14154 24.86732 1.211735 -41.91123 2.727192e-05 
322.428 27.13869 21.81811 0.5362604 -18.54764 1.54851e-05 
325.5566 27.22914 21.94754 0.8812666 -30.48275 -1.324341e-06 
326.4407 27.2547 24.86732 0.9362059 -32.38401 -1.249462e-05 
328.6122 27.31747 21.26248 0.881268 -30.48264 -3.414601e-05 
330.2215 27.364 23.85384 0.9362477 -32.38395 -7.647276e-05 
331.3863 27.39769 19.80959 0.881283 -30.48272 -9.621726e-05 
333.6113 27.46201 21.89595 0.9361994 -32.38411 -9.486591e-05 
333.6901 27.46429 17.6879 0.8812033 -30.48274 -5.87902e-05 
336.379 27.54202 19.12707 1.211684 -41.91116 -5.686656e-05 
335.3665 27.51276 15.042 0.4732985 -16.37284 -1.510372e-05 
336.3012 27.53978 12.0522 0.8038313 -27.8013 -1.466181e-05 
338.3361 27.59862 15.7359 2.025647 -70.05712 -6.831251e-07 
338.3361 27.59862 4.255398 1.100565 -38.06543 0 
339.3491 27.6279 11.95354 0.4508281 -15.59739 0 
339.3491 27.6279 8.037752 0.1146606 -3.966933 0 
328.6122 27.31747 21.26248 -507.9318 -14.68516 -1600.008 
320.3547 207.1539 21.94754 -223.2309 -6.453973 -1663.843 
323.4102 207.2423 21.26248 -646.0835 -18.67938 -1549.34 
325.5566 27.22914 21.94754 -76.68171 -2.216983 -1677.01 
331.3863 27.39769 19.80959 -904.5665 -26.15257 -1413.971 
326.1844 207.3225 19.80959 -1024.898 -29.63155 -1329.263 
317.226 207.0635 21.81811 214.8272 6.211018 -1664.948 
322.428 27.13869 21.81811 359.7868 10.40205 -1639.719 
333.6901 27.46429 17.6879 -1715.613 -49.60124 -1433.452 
328.4882 207.3891 17.6879 -857.8066 -24.80066 -716.7286 
314.2375 206.9771 20.883 638.2449 18.45275 -1552.588 
319.4394 27.05228 20.883 771.7434 22.31237 -1490.687 
330.1646 207.4376 15.042 -1490.066 -43.08021 -772.068 
335.3665 27.51276 15.042 -1551.942 -44.86906 -638.5118 
311.5927 206.9006 19.20592 1432.853 41.42612 -1716.331 
316.7946 26.97581 19.20592 716.4266 20.713 -858.1653 
331.0993 207.4646 12.0522 -1639.036 -47.38706 -359.936 
336.3012 27.53978 12.0522 -1664.253 -48.11623 -214.9164 
314.6738 26.91449 16.90119 1328.71 38.41521 -1025.332 
309.4719 206.8393 16.90119 1413.381 40.8632 -904.9481 
331.2286 207.4683 8.922243 -1676.308 -48.46484 76.71658 
336.4306 27.54352 8.922243 -1663.145 -48.08437 223.3244 
313.2215 26.87251 14.12586 1548.696 44.77528 -646.3538 
308.0196 206.7973 14.12586 1599.339 46.23937 -508.1431 
330.5439 207.4485 5.865444 -1599.34 -46.23968 508.143 
335.7458 27.52373 5.865444 -1548.699 -44.77546 646.3539 
312.5367 26.85271 11.06906 1663.145 48.0841 -223.3245 
307.3348 206.7775 11.06906 1676.308 48.46466 -76.71117 
329.0916 207.4065 3.090105 -1413.384 -40.8632 904.9427 
334.2935 27.48174 3.090105 -1328.71 -38.41507 1025.326 
312.6661 26.85645 7.939099 1664.254 48.11614 214.9219 
307.4642 206.7813 7.939099 1639.036 47.38707 359.9415 
326.9708 207.3452 0.7853703 -1432.85 -41.42592 1716.331 
332.1727 27.42043 0.7853703 -716.4252 -20.71296 858.1654 
313.6009 26.88347 4.949297 1551.943 44.86906 638.512 
308.399 206.8083 4.949297 1490.066 43.08012 772.0626 
329.5279 27.34395 -0.8916986 -771.7429 -22.31228 1490.693 
324.326 207.2688 -0.8916986 -638.2469 -18.45271 1552.594 
315.2772 26.93195 2.303395 1715.616 49.6011 1433.447 
310.0753 206.8568 2.303395 857.8079 24.80055 716.7233 
326.5393 27.25755 -1.826813 -359.789 -10.40206 1639.719 
321.3374 207.1824 -1.826813 -214.827 -6.210986 1664.948 
312.3791 206.9234 0.181706 1024.899 29.63141 1329.264 
317.581 26.99855 0.181706 904.5641 26.15235 1413.971 
323.4107 27.1671 -1.956247 76.68419 2.217076 1677.011 
318.2088 207.0919 -1.956247 223.2335 6.454041 1663.844 
315.1533 207.0036 -1.271178 646.0806 18.67919 1549.34 
320.3552 27.07875 -1.271178 507.9317 14.68511 1600.009 
3 0 1 2 
3 1 0 3 
3 1 3 4 
3 4 3 5 
3 5 3 6 
3 5 6 7 
3 7 6 8 
3 7 8 9 
3 9 8 10 
3 10 8 11 
3 10 11 12 
3 12 11 13 
3 12 13 14 
3 14 13 15 
3 14 15 16 
3 16 15 17 
3 16 17 18 
3 18 17 19 
3 19 17 20 
3 19 20 21 
3 21 20 22 
3 22 20 23 
3 23 20 24 
3 23 24 25 
3 26 27 28 
3 27 26 29 
3 29 26 0 
3 29 0 2 
3 29 2 30 
3 30 2 31 
3 30 31 32 
3 30 32 33 
3 33 32 34 
3 33 34 35 
3 33 35 36 
3 36 35 37 
3 36 37 38 
3 38 37 39 
3 38 39 40 
3 40 39 41 
3 40 41 42 
3 42 41 43 
3 42 43 44 
3 42 44 45 
3 45 44 46 
3 45 46 22 
3 22 46 47 
3 22 47 21 
3 48 49 50 
3 49 48 51 
3 51 52 49 
3 52 51 53 
3 54 52 53 
3 52 54 55 
3 56 55 54 
3 55 56 57 
3 58 57 56 
3 57 58 59 
3 60 59 58 
3 59 60 61 
3 62 61 60 
3 61 62 63 
3 64 63 62 
3 63 64 65 
3 64 66 65 
3 66 64 67 
3 67 68 66 
3 68 67 69 
3 69 70 68 
3 70 69 71 
3 71 72 70 
3 72 71 73 
3 73 74 72 
3 74 73 75 
3 75 76 74 
3 76 75 77 
3 76 78 79 
3 78 76 77 
3 79 80 81 
3 80 79 78 
3 81 82 83 
3 82 81 80 
3 83 84 85 
3 84 83 82 
3 85 86 87 
3 86 85 84 
3 87 88 89 
3 88 87 86 
3 88 90 89 
3 90 88 91 
3 91 92 90 
3 92 91 93 
3 93 94 92 
3 94 93 95 
3 95 50 94 
3 50 95 48 
3 96 97 98 
3 97 96 99 
3 97 99 100 
3 100 99 101 
3 101 99 102 
3 101 102 103 
3 103 102 104 
3 104 102 105 
3 104 105 106 
3 106 105 107 
3 107 105 108 
3 107 108 109 
3 109 108 110 
3 109 110 111 
3 111 110 112 
3 111 112 113 
3 113 112 114 
3 113 114 115 
3 115 114 116 
3 116 114 117 
3 116 117 118 
3 118 117 119 
3 118 119 120 
3 120 119 121 
3 100 122 123 
3 122 100 101 
3 123 122 124 
3 123 124 125 
3 123 125 126 
3 126 125 127 
3 126 127 128 
3 128 127 129 
3 128 129 130 
3 128 130 131 
3 131 130 132 
3 131 132 133 
3 133 132 134 
3 133 134 135 
3 135 134 136 
3 135 136 137 
3 137 136 138 
3 137 138 139 
3 137 139 140 
3 140 139 121 
3 140 121 119 
3 140 119 141 
3 140 141 142 
3 142 141 143 
3 144 145 146 
3 145 144 147 
3 148 146 149 
3 146 148 144 
3 147 150 145 
3 150 147 151 
3 152 149 153 
3 149 152 148 
3 151 154 150 
3 154 151 155 
3 152 156 157 
3 156 152 153 
3 155 158 154 
3 158 155 159 
3 157 160 161 
3 160 157 156 
3 158 162 163 
3 162 158 159 
3 161 164 165 
3 164 161 160 
3 163 166 167 
3 166 163 162 
3 165 168 169 
3 168 165 164 
3 167 170 171 
3 170 167 166 
3 169 172 173 
3 172 169 168 
3 171 174 175 
3 174 171 170 
3 173 176 177 
3 176 173 172 
3 175 178 179 
3 178 175 174 
3 180 176 181 
3 176 180 177 
3 179 182 183 
3 182 179 178 
3 184 181 185 
3 181 184 180 
3 182 186 183 
3 186 182 187 
3 188 185 189 
3 185 188 184 
3 187 190 186 
3 190 187 191 
3 191 189 190 
3 189 191 188 
